<?xml version="1.0" encoding="utf-8"?>
<!-- Generator: Adobe Illustrator 16.0.0, SVG Export Plug-In . SVG Version: 6.00 Build 0)  -->
<!DOCTYPE svg PUBLIC "-//W3C//DTD SVG 1.1//EN" "http://www.w3.org/Graphics/SVG/1.1/DTD/svg11.dtd">
<svg version="1.1" id="Bait" xmlns="http://www.w3.org/2000/svg" xmlns:xlink="http://www.w3.org/1999/xlink" x="0px" y="0px"
	 width="315.157px" height="170.188px" viewBox="0 0 315.157 170.188" enable-background="new 0 0 315.157 170.188"
	 xml:space="preserve">
<g>
	<path d="M91.893,163.39l-27.415-16.01c-7.237,5.482-15.571,8.771-24.563,8.771C17.106,156.151,0,134.44,0,125.667
		c0-2.412,0.658-3.729,3.509-6.141l14.475-12.5c23.028,0,43.205-10.747,43.205-30.704c0-17.546-14.475-31.143-39.696-31.143
		c-6.36,0-9.869,0.877-14.256,2.192L3.07,58.557H0.877c6.141-22.37,11.185-27.195,37.284-57.241l2.193,1.754l-4.825,5.702
		c36.845,12.282,42.547,14.694,49.126,23.686l5.921-5.044V8.772h3.07v16.668c10.308-11.186,10.966-12.063,20.177-24.125l1.974,1.974
		l-4.167,5.264c9.869,6.36,13.159,7.896,26.098,12.282l4.387-5.044l2.412,1.316l-22.15,26.318
		c6.36,4.387,12.062,7.457,19.299,11.404c-2.412,5.482-3.07,10.527-3.07,18.203v47.59c0,18.424-13.817,11.406-49.126,49.566
		l-2.193-1.535L91.893,163.39z M62.066,145.845c-23.248-12.281-44.74-21.273-51.978-21.273c-2.852,0-4.387,1.754-4.387,3.729
		c0,5.043,14.694,25.221,35.529,25.221C46.934,153.521,54.171,151.546,62.066,145.845z M15.791,32.02
		c-2.632,3.29-3.29,4.167-5.264,7.896c2.851-0.22,5.921-0.438,8.115-0.438c22.37,0,45.617,8.334,45.617,38.16h0.438
		c2.413-4.386,3.729-9.649,3.729-14.694C68.426,37.942,35.749,32.02,15.791,32.02z M85.094,35.529
		c0.438,2.632,0.877,5.702,0.877,10.746c0,36.626-40.354,59.435-48.907,63.383c19.299,7.675,33.335,14.474,51.319,24.125
		c1.097-23.686,1.535-83.121,2.193-103.517L85.094,35.529z M106.587,61.847c-3.29,4.386-6.579,7.237-11.404,11.404
		c0.219,22.37-1.316,36.406-3.729,61.847c7.676,4.605,17.545,9.43,19.739,10.746c4.386-4.168,4.605-5.922,4.605-23.906
		c0-12.062-0.219-21.493-0.219-28.292c0-9.649,0.877-18.642,1.316-26.317L106.587,61.847z M93.647,28.95
		c0.438,19.957,0.658,25.221,1.535,40.573c8.334-7.457,14.255-14.036,25.66-29.169C104.833,32.678,110.315,34.871,93.647,28.95z"/>
	<path d="M155.059,151.546c4.605-8.771,5.044-13.158,5.044-42.328c0-29.826-0.658-41.45-3.509-45.836
		c10.308-7.896,19.3-15.571,25.659-21.273l7.237-6.58l1.755,1.974l-5.702,4.825c8.772,4.825,24.563,10.308,38.38,14.036
		c-2.632,3.729-3.29,7.019-3.29,12.721v64.917c0,3.729,2.194,6.58,7.238,8.773c-5.702,7.676-14.036,19.957-18.203,27.414
		l-1.975-1.535l3.729-5.922c-5.921-5.703-13.378-11.623-19.738-16.01c-4.605,5.264-10.088,11.623-14.913,17.764l-4.605,5.703
		l-1.755-1.535l4.605-5.922L155.059,151.546z M199.141,138.825c1.097-1.754,1.315-2.631,1.315-6.359V70.62
		c-6.579-1.975-15.79-5.483-20.177-7.677v68.207c0,4.605,0.877,5.703,7.019,9.65l6.579,4.168L199.141,138.825z"/>
	<path d="M241.25,65.575c0-2.632-1.974-4.386-8.114-7.895c5.702-5.483,15.571-13.159,18.422-16.449l5.045-5.702l2.192,1.316
		l-5.044,5.702c3.509,2.412,7.237,4.605,13.598,7.895c-4.605,5.922-5.922,10.747-5.922,19.52v61.409
		c0,5.482,1.316,8.771,8.115,15.789l-24.783,23.029l-1.974-1.756l6.141-5.701c-5.044-6.799-10.746-13.816-14.913-18.643
		c6.799-5.701,7.237-7.236,7.237-16.887V65.575z M253.751,15.791L271.954,0l1.316,0.877l-8.554,20.615l-25.879,19.738l-1.535-1.535
		L253.751,15.791z"/>
	<path d="M298.051,162.731l-22.37-12.281c3.948-4.826,6.36-10.746,6.36-15.572V66.671h-10.088l9.649-10.527v-5.482
		c0-1.974-0.438-8.553-1.535-13.816c14.036-7.457,18.861-17.545,32.678-28.073l1.316,2.193
		c-8.554,7.018-11.844,12.282-11.844,23.686v14.475h11.624v17.545h-11.624v65.576c0,5.264,0.878,6.578,12.939,14.035
		c-4.824,5.045-9.211,10.527-13.597,16.01l-6.36,7.896l-2.193-1.535L298.051,162.731z"/>
</g>
</svg>
